HIERARCHY
ROOT pelvis
{
  OFFSET 0 100 0
  CHANNELS 6 Xposition Yposition Zposition Zrotation Xrotation Yrotation
  JOINT pelvis_right_femur
  {
    OFFSET -10.78128 -3.44521 -0.5502486
    CHANNELS 3 Zrotation Xrotation Yrotation
    JOINT right_femur_tibia
    {
      OFFSET -0.8047443 -44.0398 -0.1307829
      CHANNELS 3 Zrotation Xrotation Yrotation
      JOINT right_tibia_foot
      {
        OFFSET 3.006224 -47.83518 -5
        CHANNELS 3 Zrotation Xrotation Yrotation
        End Site
        {
          OFFSET 0 -5 15
        }
      }
    }
  }
  JOINT pelvis_left_femur
  {
    OFFSET 10.78128 -3.44521 -0.5502486
    CHANNELS 3 Zrotation Xrotation Yrotation
    JOINT left_femur_tibia
    {
      OFFSET 0.8047443 -44.0398 -0.1307829
      CHANNELS 3 Zrotation Xrotation Yrotation
      JOINT left_tibia_foot
      {
        OFFSET -4.370144 -48.10324 -4.275266
        CHANNELS 3 Zrotation Xrotation Yrotation
        End Site
        {
          OFFSET 0 -5 15
        }
      }
    }
  }
  JOINT pelvis_spine1
  {
    OFFSET 0 6.468898 -3.129235
    CHANNELS 3 Zrotation Xrotation Yrotation
    JOINT spine1
    {
      OFFSET 0 23.15396 4.99043
      CHANNELS 3 Zrotation Xrotation Yrotation
      JOINT spine2
      {
        OFFSET 0 20.79997 -5.064912
        CHANNELS 3 Zrotation Xrotation Yrotation
        JOINT neck
        {
          OFFSET 0 14.38658 9.616178
          CHANNELS 3 Zrotation Xrotation Yrotation
          End Site
          {
            OFFSET 0 20 0
          }
        }
      }
      JOINT right_manubrium
      {
        OFFSET -5.722621 16.35077 3.967754
        CHANNELS 3 Zrotation Xrotation Yrotation
        JOINT right_clavicle
        {
          OFFSET -13.16364 1.694482 -4.693211
          CHANNELS 3 Zrotation Xrotation Yrotation
          JOINT right_humerus
          {
            OFFSET -28.5034 -0.3100689 -2.792744
            CHANNELS 3 Zrotation Xrotation Yrotation
            JOINT right_radius
            {
              OFFSET -25.15693 0.02248979 -1.271978
              CHANNELS 3 Zrotation Xrotation Yrotation
              End Site
              {
                OFFSET -15 0 0
              }
            }
          }
        }
      }
      JOINT left_manubrium
      {
        OFFSET 5.722621 16.35077 3.967754
        CHANNELS 3 Zrotation Xrotation Yrotation
        JOINT left_clavicle
        {
          OFFSET 13.16364 1.694482 -4.693211
          CHANNELS 3 Zrotation Xrotation Yrotation
          JOINT left_humerus
          {
            OFFSET 29.39168 -1.063119 -2.237045
            CHANNELS 3 Zrotation Xrotation Yrotation
            JOINT left_radius
            {
              OFFSET 24.59957 -0.9528479 0.9047498
              CHANNELS 3 Zrotation Xrotation Yrotation
              End Site
              {
                OFFSET 15 -0 -0
              }
            }
          }
        }
      }
    }
  }
}
MOTION
Frames: 17
Frame Time: 0.0416666666667
289.5691 105.8397 3193.264 -0.3388213 -5.465754 -2.899589 4.532245 16.01973 3.323161 -0 10.56251 -0 -2.559803 -16.51649 -0.8242746 2.788165 -26.25413 -2.600775 -0 21.59732 -0 -5.369414 -6.587764 19.61324 0.9406738 -3.023128 7.105509 -1.392959 15.68864 -4.986112 2.583779 20.12399 1.594495 -1.024292 -18.95356 5.683521 -4.960299 -29.51626 10.88656 93.65253 15.81209 -11.11574 -0 0 24.51088 -24.02016 13.66486 17.64393 1.454514 -21.70283 -7.143602 -92.50692 16.70976 33.22343 0 0 -17.0354 -0.5207923 10.35736 19.1742
290.0611 104.7231 3199.515 -0.3497507 -4.548444 -3.525876 3.677807 17.96957 3.076763 -0 12.65508 -0 -2.425042 -16.47174 0.05539991 2.335768 -27.2058 -3.117649 -0 16.78114 -0 -5.131338 -6.418655 19.56708 0.8922928 -3.026395 7.141358 -1.32322 15.54029 -4.951733 2.564635 20.12642 1.55164 -1.102117 -19.04409 5.688518 -5.04478 -29.73193 10.82589 93.37447 15.74723 -10.64965 -0 0 25.03308 -24.02095 13.71741 17.75183 1.492691 -21.38132 -6.912861 -92.84792 16.74449 33.70162 0 0 -16.32337 -0.6062522 10.43972 19.05935
290.656 103.802 3206.197 0.01649706 -3.960601 -4.049646 2.329382 19.61095 3.032009 -0 16.21061 -0 -2.190069 -14.41323 0.7546372 1.035547 -27.28201 -4.28503 -0 15.16749 -0 -5.00181 -6.610901 19.62418 0.8494063 -3.009163 7.137622 -1.258139 15.4272 -4.934361 2.550366 20.17235 1.549753 -1.139242 -19.14598 5.715791 -5.105881 -29.81109 10.78626 93.22229 15.70884 -10.39772 -0 0 25.22348 -23.99533 13.6986 17.75816 1.523093 -21.18376 -6.774053 -93.05878 16.80196 33.91458 0 0 -15.8286 -0.5864509 10.55029 18.85448
291.3184 103.2441 3213.301 0.6554995 -3.922589 -4.388981 0.7909755 20.5003 3.277771 -0 21.73012 -0 -1.901623 -9.97732 1.040908 -0.7311694 -26.25156 -5.689658 -0 15.93199 -0 -4.560686 -7.112359 19.77614 0.8159788 -2.972582 7.098021 -1.203299 15.36203 -4.935618 2.541943 20.25385 1.583613 -1.13601 -19.24895 5.759324 -5.137982 -29.75978 10.77248 93.20021 15.69837 -10.36498 -0 0 25.09394 -23.94842 13.6203 17.66944 1.541637 -21.11752 -6.735348 -93.13221 16.87543 33.86916 0 0 -15.57015 -0.4710797 10.67762 18.58352
292.0209 103.2173 3220.703 1.343161 -4.380471 -4.426249 -0.4819184 19.74257 3.770842 -0 29.42648 -0 -1.504193 -3.512066 0.7306136 -2.480682 -23.64967 -6.814066 -0 17.84466 -0 -3.534524 -7.714257 19.78293 0.795294 -2.920488 7.027252 -1.162492 15.35043 -4.956673 2.539652 20.36149 1.647814 -1.094604 -19.34413 5.813595 -5.139253 -29.58807 10.78595 93.30648 15.71406 -10.54828 -0 0 24.66893 -23.88538 13.49466 17.49553 1.547545 -21.18429 -6.796591 -93.06508 16.95694 33.5773 0 0 -15.56384 -0.2731451 10.81067 18.26977
292.7348 103.8308 3228.144 1.82075 -5.067922 -4.077045 -1.073099 16.65743 4.228169 -0 38.50825 -0 -1.011396 3.397565 -0.1923477 -3.868032 -19.32637 -7.443086 -0 19.65395 -0 -2.211056 -8.39622 19.49526 0.7896578 -2.858736 6.930335 -1.1378 15.39113 -4.997813 2.543199 20.48563 1.737745 -1.018299 -19.42463 5.874317 -5.111275 -29.30796 10.82484 93.53467 15.75201 -10.9381 -0 0 23.97998 -23.81087 13.33192 17.24835 1.542906 -21.38113 -6.950761 -92.8579 17.03824 33.0535 0 0 -15.82234 -0.007039672 10.93953 17.93414
293.4303 104.9957 3235.286 1.918858 -5.72477 -3.358042 -0.914716 11.38098 4.354104 -0 46.86363 -0 -0.5883815 8.458277 -1.507704 -4.775395 -13.83448 -7.772244 -0 20.36897 -0 -1.240553 -9.347613 19.01902 0.8001177 -2.794966 6.813014 -1.129701 15.47613 -5.057796 2.551713 20.61649 1.849312 -0.9117132 -19.48559 5.938367 -5.058751 -28.93483 10.88417 93.87186 15.80697 -11.5154 -0 0 23.06851 -23.72937 13.14084 16.94325 1.532124 -21.6989 -7.183682 -92.51711 17.11074 32.31916 0 0 -16.35002 0.3109085 11.05556 17.59579
294.091 106.3687 3241.891 1.663378 -6.271345 -2.388906 -0.3535382 4.769469 4.112372 -0 51.86577 -0 -0.3945539 10.32092 -2.88646 -5.201828 -8.140317 -8.034644 -0 19.57952 -0 -0.9123467 -10.63638 18.5122 0.8260841 -2.738058 6.682473 -1.137138 15.59118 -5.13317 2.563773 20.74404 1.977973 -0.78153 -19.524 6.003382 -4.989088 -28.49027 10.95604 94.29588 15.8731 -12.24636 -0 0 21.99171 -23.64553 12.93015 16.60077 1.521059 -22.11932 -7.473401 -92.05918 17.16575 31.41019 0 0 -17.13358 0.6610031 11.15137 17.27345
294.7155 107.4982 3247.955 1.254652 -6.722275 -1.337447 0.1935608 -2.202305 3.621524 -0 51.87849 -0 -0.406313 9.48512 -4.10435 -5.224055 -2.94655 -8.220561 -0 17.60785 -0 -0.9635949 -12.13827 17.93801 0.865051 -2.696416 6.54712 -1.157708 15.71809 -5.218191 2.577673 20.8591 2.11818 -0.6364998 -19.53896 6.067571 -4.911179 -28.00226 11.03093 94.77543 15.94486 -13.08152 -0 0 20.82155 -23.56394 12.70905 16.24565 1.515621 -22.61411 -7.792138 -91.51255 17.19645 30.3798 0 0 -18.13432 1.02077 11.22165 16.98479
295.2993 108.0499 3253.667 0.9210677 -6.995624 -0.3482829 0.5204983 -8.819296 2.935154 -0 47.05845 -0 -0.4674032 7.385935 -5.06628 -5.030824 1.567878 -8.234379 -0 15.24294 -0 -1.153341 -13.77547 17.13468 0.9128176 -2.675576 6.4152 -1.188085 15.83883 -5.305767 2.591862 20.95534 2.263654 -0.4862646 -19.53195 6.129748 -4.833476 -27.50115 11.09974 95.27484 16.01787 -13.9625 -0 0 19.63414 -23.48826 12.48645 15.90222 1.520152 -23.1485 -8.111452 -90.91466 17.20042 29.29215 0 0 -19.28886 1.368319 11.2643 16.7436
295.8296 107.9158 3259.284 0.7933673 -6.928861 0.5034235 0.6134019 -14.62599 2.081063 -0 38.93018 -0 -0.3900017 5.193665 -5.752783 -4.846117 5.489659 -8.078666 -0 13.28734 -0 -1.535245 -15.52624 16.04128 0.9642983 -2.676704 6.293409 -1.2246 15.9396 -5.388953 2.605281 21.03032 2.407894 -0.3399084 -19.50658 6.189133 -4.762364 -27.01498 11.1558 95.76033 16.08916 -14.83171 -0 0 18.49774 -23.42066 12.27033 15.58991 1.536292 -23.68659 -8.407606 -90.30596 17.18069 28.21236 0 0 -20.51779 1.685706 11.2808 16.55752
296.2935 107.1823 3265.024 0.8770703 -6.444526 1.206483 0.5652526 -19.36563 1.187405 -0 29.48401 -0 -0.03509875 3.535671 -6.206123 -4.805216 8.918185 -7.81167 -0 12.31488 -0 -2.189005 -17.23796 14.777 1.014552 -2.696761 6.186599 -1.263849 16.01323 -5.462083 2.617434 21.08474 2.544245 -0.2052124 -19.46761 6.244711 -4.701544 -26.56758 11.19585 96.20387 16.15664 -15.6386 -0 0 17.46781 -23.36221 12.06833 15.32187 1.562621 -24.19537 -8.664342 -89.72496 17.14446 27.20022 0 0 -21.73603 1.959764 11.27515 16.42863
296.6804 106.0488 3271.044 1.084352 -5.645133 1.780973 0.5383482 -22.92802 0.4707482 -0 20.53318 -0 0.588267 2.667664 -6.506369 -4.909483 11.90773 -7.472852 -0 12.69611 -0 -3.053665 -18.59839 13.55069 1.05963 -2.72977 6.098393 -1.303202 16.0596 -5.521168 2.628258 21.12068 2.665689 -0.08859021 -19.41981 6.294507 -4.652217 -26.1792 11.22 96.58404 16.2184 -16.34133 -0 0 16.58865 -23.31387 11.88897 15.10639 1.594871 -24.64649 -8.873039 -89.20572 17.10045 26.30916 0 0 -22.86094 2.180823 11.25209 16.35621
296.9782 104.7634 3277.437 1.283533 -4.773726 2.250893 0.7284794 -25.25121 0.1564684 -0 13.44549 -0 1.317703 2.564161 -6.742993 -5.058369 14.45847 -7.088497 -0 14.70125 -0 -4.029661 -19.25394 12.54167 1.09706 -2.768413 6.031967 -1.341162 16.08474 -5.563732 2.637946 21.13991 2.764847 0.00478177 -19.36697 6.335245 -4.613641 -25.86783 11.23108 96.88541 16.27242 -16.90644 -0 0 15.89668 -23.27737 11.74219 14.9492 1.626592 -25.01682 -9.03144 -88.77699 17.05642 25.58683 0 0 -23.8182 2.341034 11.21545 16.33969
297.1711 103.5905 3284.243 1.346295 -4.102943 2.62314 1.310808 -26.2318 0.4249541 -0 9.080839 -0 1.936387 2.935335 -6.990645 -5.108062 16.46667 -6.698201 -0 18.54131 -0 -5.087288 -18.91712 11.85027 1.125895 -2.805574 5.99054 -1.377458 16.09861 -5.588388 2.646783 21.14293 2.834382 0.07085029 -19.31129 6.362567 -4.583839 -25.64969 11.23351 97.09737 16.31658 -17.30795 -0 0 15.42271 -23.25558 11.63901 14.85529 1.650257 -25.28857 -9.141602 -88.46186 17.0175 25.0752 0 0 -24.54637 2.433191 11.16712 16.38069
297.2452 102.7883 3291.43 1.186714 -3.831578 2.866436 2.36384 -25.71797 1.360172 -0 7.756565 -0 2.269956 3.280283 -7.285962 -4.931119 17.65853 -6.355986 -0 24.31015 -0 -6.23106 -17.44342 11.52741 1.146392 -2.835677 5.977479 -1.412797 16.11214 -5.594385 2.655014 21.12859 2.867624 0.1065258 -19.2533 6.371706 -4.560464 -25.53917 11.23199 97.21269 16.34892 -17.52631 -0 0 15.19324 -23.25216 11.59041 14.82991 1.658738 -25.44898 -9.207268 -88.27766 16.9856 24.80965 0 0 -24.99983 2.45025 11.10676 16.48366
297.2017 102.5679 3298.874 0.801204 -4.023449 2.904414 3.772186 -23.604 2.857406 -0 9.126199 -0 2.221761 3.026401 -7.604047 -4.481093 17.5774 -6.110883 -0 31.83059 -0 -7.377927 -14.93606 11.62399 1.159412 -2.855684 5.996039 -1.448229 16.13394 -5.581359 2.662712 21.09438 2.859277 0.1094593 -19.19227 6.358413 -4.541747 -25.54819 11.23011 97.2261 16.36781 -17.54749 -0 0 15.23061 -23.27088 11.6059 14.87872 1.646975 -25.48966 -9.231039 -88.23609 16.95976 24.8172 0 0 -25.15017 2.385617 11.03244 16.65474
